<svg width="93" height="47" viewBox="0 0 93 47" fill="none" xmlns="http://www.w3.org/2000/svg">
<rect x="11.3335" y="0.333984" width="70" height="46.6667" rx="3.33333" fill="#FFDD00"/>
<rect y="5" width="92.0733" height="37.6667" rx="3.33333" fill="#1C7E68"/>
<path d="M17.7867 28.4397C17.5734 28.4397 17.4001 28.3908 17.2667 28.293C17.1423 28.1952 17.0667 28.0663 17.0401 27.9063C17.0134 27.7375 17.0445 27.5508 17.1334 27.3463L20.6534 19.5463C20.769 19.2886 20.9067 19.1063 21.0667 18.9997C21.2356 18.8841 21.4267 18.8263 21.6401 18.8263C21.8445 18.8263 22.0267 18.8841 22.1867 18.9997C22.3556 19.1063 22.4979 19.2886 22.6134 19.5463L26.1467 27.3463C26.2445 27.5508 26.2801 27.7375 26.2534 27.9063C26.2267 28.0752 26.1512 28.2086 26.0267 28.3063C25.9023 28.3952 25.7379 28.4397 25.5334 28.4397C25.2845 28.4397 25.089 28.3819 24.9467 28.2663C24.8134 28.1419 24.6934 27.9552 24.5867 27.7063L23.7201 25.693L24.4401 26.1597H18.8134L19.5334 25.693L18.6801 27.7063C18.5645 27.9641 18.4445 28.1508 18.3201 28.2663C18.1956 28.3819 18.0179 28.4397 17.7867 28.4397ZM21.6134 20.7863L19.7467 25.2263L19.4001 24.7997H23.8534L23.5201 25.2263L21.6401 20.7863H21.6134ZM31.2153 28.4663C30.6642 28.4663 30.1797 28.3286 29.762 28.053C29.3531 27.7775 29.082 27.4086 28.9486 26.9463L29.0953 26.613V27.5863C29.0953 27.8619 29.0242 28.0752 28.882 28.2263C28.7397 28.3686 28.5397 28.4397 28.282 28.4397C28.0153 28.4397 27.8108 28.3686 27.6686 28.2263C27.5264 28.0752 27.4553 27.8619 27.4553 27.5863V19.6663C27.4553 19.3908 27.5264 19.1819 27.6686 19.0397C27.8108 18.8975 28.0153 18.8263 28.282 18.8263C28.5486 18.8263 28.7531 18.8975 28.8953 19.0397C29.0464 19.1819 29.122 19.3908 29.122 19.6663V23.133H28.962C29.1042 22.6975 29.3797 22.3463 29.7886 22.0797C30.1975 21.813 30.6731 21.6797 31.2153 21.6797C31.7931 21.6797 32.2953 21.8175 32.722 22.093C33.1486 22.3686 33.482 22.7597 33.722 23.2663C33.962 23.7641 34.082 24.3641 34.082 25.0663C34.082 25.7597 33.962 26.3641 33.722 26.8797C33.482 27.3863 33.1442 27.7775 32.7086 28.053C32.282 28.3286 31.7842 28.4663 31.2153 28.4663ZM30.7486 27.1997C31.0775 27.1997 31.3664 27.1197 31.6153 26.9597C31.8642 26.7997 32.0553 26.5641 32.1886 26.253C32.3308 25.933 32.402 25.5375 32.402 25.0663C32.402 24.3552 32.2508 23.8263 31.9486 23.4797C31.6464 23.1241 31.2464 22.9463 30.7486 22.9463C30.4197 22.9463 30.1308 23.0263 29.882 23.1863C29.6331 23.3375 29.4375 23.573 29.2953 23.893C29.162 24.2041 29.0953 24.5952 29.0953 25.0663C29.0953 25.7686 29.2464 26.3019 29.5486 26.6663C29.8508 27.0219 30.2508 27.1997 30.7486 27.1997ZM38.4234 28.4663C37.7479 28.4663 37.1612 28.3286 36.6634 28.053C36.1656 27.7775 35.779 27.3863 35.5034 26.8797C35.2279 26.3641 35.0901 25.7597 35.0901 25.0663C35.0901 24.5419 35.1656 24.0752 35.3167 23.6663C35.4767 23.2486 35.7034 22.893 35.9967 22.5997C36.2901 22.2975 36.6412 22.0708 37.0501 21.9197C37.459 21.7597 37.9167 21.6797 38.4234 21.6797C39.099 21.6797 39.6856 21.8175 40.1834 22.093C40.6812 22.3686 41.0679 22.7597 41.3434 23.2663C41.619 23.773 41.7568 24.373 41.7568 25.0663C41.7568 25.5908 41.6768 26.0619 41.5168 26.4797C41.3656 26.8975 41.1434 27.2575 40.8501 27.5597C40.5567 27.853 40.2056 28.0797 39.7967 28.2397C39.3879 28.3908 38.9301 28.4663 38.4234 28.4663ZM38.4234 27.1997C38.7523 27.1997 39.0412 27.1197 39.2901 26.9597C39.539 26.7997 39.7301 26.5641 39.8634 26.253C40.0056 25.933 40.0767 25.5375 40.0767 25.0663C40.0767 24.3552 39.9256 23.8263 39.6234 23.4797C39.3212 23.1241 38.9212 22.9463 38.4234 22.9463C38.0945 22.9463 37.8056 23.0263 37.5567 23.1863C37.3079 23.3375 37.1123 23.573 36.9701 23.893C36.8367 24.2041 36.7701 24.5952 36.7701 25.0663C36.7701 25.7686 36.9212 26.3019 37.2234 26.6663C37.5256 27.0219 37.9256 27.1997 38.4234 27.1997ZM45.4924 28.4663C44.9502 28.4663 44.5013 28.3686 44.1457 28.173C43.7902 27.9686 43.5235 27.6663 43.3457 27.2663C43.1768 26.8663 43.0924 26.3686 43.0924 25.773V22.5463C43.0924 22.2619 43.1635 22.053 43.3057 21.9197C43.4479 21.7775 43.6524 21.7063 43.919 21.7063C44.1857 21.7063 44.3902 21.7775 44.5324 21.9197C44.6835 22.053 44.759 22.2619 44.759 22.5463V25.7997C44.759 26.2619 44.8524 26.6041 45.039 26.8263C45.2257 27.0486 45.5235 27.1597 45.9324 27.1597C46.3768 27.1597 46.7413 27.0086 47.0257 26.7063C47.3102 26.3952 47.4524 25.9863 47.4524 25.4797V22.5463C47.4524 22.2619 47.5235 22.053 47.6657 21.9197C47.8079 21.7775 48.0124 21.7063 48.279 21.7063C48.5457 21.7063 48.7502 21.7775 48.8924 21.9197C49.0435 22.053 49.119 22.2619 49.119 22.5463V27.5863C49.119 28.1552 48.8479 28.4397 48.3057 28.4397C48.0479 28.4397 47.8479 28.3686 47.7057 28.2263C47.5635 28.0752 47.4924 27.8619 47.4924 27.5863V26.573L47.679 26.973C47.4924 27.453 47.2079 27.8219 46.8257 28.0797C46.4524 28.3375 46.0079 28.4663 45.4924 28.4663ZM53.8404 28.4663C53.2626 28.4663 52.7782 28.3686 52.3871 28.173C52.0048 27.9775 51.7204 27.693 51.5337 27.3197C51.3471 26.9375 51.2537 26.4663 51.2537 25.9063V23.0663H50.5604C50.3471 23.0663 50.1826 23.013 50.0671 22.9063C49.9515 22.7908 49.8937 22.6352 49.8937 22.4397C49.8937 22.2352 49.9515 22.0797 50.0671 21.973C50.1826 21.8663 50.3471 21.813 50.5604 21.813H51.2537V20.5997C51.2537 20.3241 51.3248 20.1152 51.4671 19.973C51.6182 19.8308 51.8271 19.7597 52.0937 19.7597C52.3604 19.7597 52.5648 19.8308 52.7071 19.973C52.8493 20.1152 52.9204 20.3241 52.9204 20.5997V21.813H54.3337C54.5471 21.813 54.7115 21.8663 54.8271 21.973C54.9426 22.0797 55.0004 22.2352 55.0004 22.4397C55.0004 22.6352 54.9426 22.7908 54.8271 22.9063C54.7115 23.013 54.5471 23.0663 54.3337 23.0663H52.9204V25.813C52.9204 26.2397 53.0137 26.5597 53.2004 26.773C53.3871 26.9863 53.6893 27.093 54.1071 27.093C54.2582 27.093 54.3915 27.0797 54.5071 27.053C54.6226 27.0263 54.7248 27.0086 54.8137 26.9997C54.9204 26.9908 55.0093 27.0263 55.0804 27.1063C55.1515 27.1775 55.1871 27.3286 55.1871 27.5597C55.1871 27.7375 55.1559 27.8975 55.0937 28.0397C55.0404 28.173 54.9382 28.2663 54.7871 28.3197C54.6715 28.3552 54.5204 28.3863 54.3337 28.413C54.1471 28.4486 53.9826 28.4663 53.8404 28.4663ZM63.6574 28.4663C63.0085 28.4663 62.4352 28.3819 61.9374 28.213C61.4485 28.0441 61.0352 27.7952 60.6974 27.4663C60.3596 27.1286 60.1063 26.7108 59.9374 26.213C59.7685 25.7152 59.684 25.1375 59.684 24.4797V19.693C59.684 19.3997 59.7552 19.1819 59.8974 19.0397C60.0485 18.8975 60.2618 18.8263 60.5374 18.8263C60.8129 18.8263 61.0218 18.8975 61.164 19.0397C61.3152 19.1819 61.3907 19.3997 61.3907 19.693V24.4663C61.3907 25.3108 61.5818 25.9463 61.964 26.373C62.3552 26.7908 62.9196 26.9997 63.6574 26.9997C64.3952 26.9997 64.9552 26.7908 65.3374 26.373C65.7196 25.9463 65.9107 25.3108 65.9107 24.4663V19.693C65.9107 19.3997 65.9818 19.1819 66.124 19.0397C66.2752 18.8975 66.4885 18.8263 66.764 18.8263C67.0307 18.8263 67.2352 18.8975 67.3774 19.0397C67.5285 19.1819 67.604 19.3997 67.604 19.693V24.4797C67.604 25.3508 67.4529 26.0841 67.1507 26.6797C66.8574 27.2752 66.4174 27.7241 65.8307 28.0263C65.244 28.3197 64.5196 28.4663 63.6574 28.4663ZM71.8211 28.4663C71.4389 28.4663 71.0345 28.4263 70.6078 28.3463C70.1811 28.2663 69.7989 28.1286 69.4611 27.933C69.3189 27.8441 69.2167 27.7419 69.1545 27.6263C69.1011 27.5019 69.0789 27.3819 69.0878 27.2663C69.1056 27.1419 69.15 27.0352 69.2211 26.9463C69.3011 26.8575 69.3989 26.7997 69.5145 26.773C69.6389 26.7463 69.7722 26.7686 69.9145 26.8397C70.27 27.0086 70.6033 27.1286 70.9145 27.1997C71.2256 27.2619 71.5322 27.293 71.8345 27.293C72.2611 27.293 72.5767 27.2219 72.7811 27.0797C72.9945 26.9286 73.1011 26.733 73.1011 26.493C73.1011 26.2886 73.03 26.133 72.8878 26.0263C72.7545 25.9108 72.55 25.8263 72.2745 25.773L70.9411 25.5197C70.39 25.413 69.9678 25.213 69.6745 24.9197C69.39 24.6175 69.2478 24.2308 69.2478 23.7597C69.2478 23.333 69.3633 22.9641 69.5945 22.653C69.8345 22.3419 70.1633 22.1019 70.5811 21.933C70.9989 21.7641 71.4789 21.6797 72.0211 21.6797C72.4122 21.6797 72.7767 21.7241 73.1145 21.813C73.4611 21.893 73.7945 22.0219 74.1145 22.1997C74.2478 22.2708 74.3367 22.3641 74.3811 22.4797C74.4345 22.5952 74.4478 22.7152 74.4211 22.8397C74.3945 22.9552 74.3411 23.0619 74.2611 23.1597C74.1811 23.2486 74.0789 23.3063 73.9545 23.333C73.8389 23.3508 73.7056 23.3241 73.5545 23.253C73.2789 23.1108 73.0122 23.0086 72.7545 22.9463C72.5056 22.8841 72.2656 22.853 72.0345 22.853C71.5989 22.853 71.2745 22.9286 71.0611 23.0797C70.8567 23.2308 70.7545 23.4308 70.7545 23.6797C70.7545 23.8663 70.8167 24.0219 70.9411 24.1463C71.0656 24.2708 71.2567 24.3552 71.5145 24.3997L72.8478 24.653C73.4256 24.7597 73.8611 24.9552 74.1545 25.2397C74.4567 25.5241 74.6078 25.9063 74.6078 26.3863C74.6078 27.0352 74.3545 27.5463 73.8478 27.9197C73.3411 28.2841 72.6656 28.4663 71.8211 28.4663Z" fill="white"/>
</svg>
