<svg width="28" height="29" viewBox="0 0 28 29" fill="none" xmlns="http://www.w3.org/2000/svg">
<rect y="0.259766" width="28" height="28" rx="3.33333" fill="#FFDD00"/>
<g clip-path="url(#clip0_113_86)">
<path d="M19.04 11.7578C19.04 11.7018 19.028 11.6578 19.004 11.6258C18.964 11.5298 18.896 11.4738 18.8 11.4578L13.64 8.94978C13.552 8.90978 13.464 8.90978 13.376 8.94978L8.168 11.4818C8.056 11.5378 8 11.6258 8 11.7458V18.0938C8 18.1578 8.014 18.2138 8.042 18.2618C8.07 18.3098 8.112 18.3458 8.168 18.3698L13.376 20.8898L13.388 20.9018H13.412V20.9138H13.448C13.456 20.9218 13.464 20.9258 13.472 20.9258H13.556L13.58 20.9138H13.604C13.612 20.9138 13.616 20.9098 13.616 20.9018H13.64L13.652 20.8898L18.872 18.3578C18.928 18.3338 18.97 18.2978 18.998 18.2498C19.026 18.2018 19.04 18.1458 19.04 18.0818V11.7578ZM13.508 9.56178L18.032 11.7578L16.364 12.5618L11.852 10.3778L13.508 9.56178ZM13.508 13.9418L8.996 11.7578L11.144 10.7138L15.668 12.8978L13.508 13.9418ZM8.6 12.2498L13.208 14.4818V20.1338L8.6 17.9018V12.2498ZM13.82 20.1338V14.4818L15.98 13.4258V14.9018C15.98 14.9898 16.01 15.0638 16.07 15.1238C16.13 15.1838 16.2 15.2138 16.28 15.2138C16.36 15.2138 16.43 15.1838 16.49 15.1238C16.55 15.0638 16.58 14.9898 16.58 14.9018V13.1378L18.428 12.2378V17.8898L13.82 20.1338Z" fill="black"/>
</g>
<defs>
<clipPath id="clip0_113_86">
<rect width="12" height="24" fill="white" transform="matrix(1 0 0 -1 8 26.9258)"/>
</clipPath>
</defs>
</svg>
