<svg width="32" height="32" viewBox="0 0 32 32" fill="none" xmlns="http://www.w3.org/2000/svg">
<path d="M10 22C9.5875 22 9.23425 21.853 8.94025 21.559C8.64625 21.265 8.4995 20.912 8.5 20.5V11.5C8.5 11.0875 8.647 10.7343 8.941 10.4403C9.235 10.1463 9.588 9.9995 10 10H22C22.4125 10 22.7658 10.147 23.0598 10.441C23.3538 10.735 23.5005 11.088 23.5 11.5V20.5C23.5 20.9125 23.353 21.2658 23.059 21.5598C22.765 21.8538 22.412 22.0005 22 22H10ZM16 16.75L22 13V11.5L16 15.25L10 11.5V13L16 16.75Z" fill="white"/>
<rect x="0.333333" y="0.333333" width="31.3333" height="31.3333" rx="15.6667" stroke="#FFDD00" stroke-width="0.666667"/>
</svg>
