<svg width="32" height="32" viewBox="0 0 32 32" fill="none" xmlns="http://www.w3.org/2000/svg">
<path d="M16 15.625C15.5027 15.625 15.0258 15.4275 14.6742 15.0758C14.3225 14.7242 14.125 14.2473 14.125 13.75C14.125 13.2527 14.3225 12.7758 14.6742 12.4242C15.0258 12.0725 15.5027 11.875 16 11.875C16.4973 11.875 16.9742 12.0725 17.3258 12.4242C17.6775 12.7758 17.875 13.2527 17.875 13.75C17.875 13.9962 17.8265 14.24 17.7323 14.4675C17.638 14.695 17.4999 14.9017 17.3258 15.0758C17.1517 15.2499 16.945 15.388 16.7175 15.4823C16.49 15.5765 16.2462 15.625 16 15.625ZM16 8.5C14.6076 8.5 13.2723 9.05312 12.2877 10.0377C11.3031 11.0223 10.75 12.3576 10.75 13.75C10.75 17.6875 16 23.5 16 23.5C16 23.5 21.25 17.6875 21.25 13.75C21.25 12.3576 20.6969 11.0223 19.7123 10.0377C18.7277 9.05312 17.3924 8.5 16 8.5Z" fill="white"/>
<rect x="0.333333" y="0.333333" width="31.3333" height="31.3333" rx="15.6667" stroke="#FFDD00" stroke-width="0.666667"/>
</svg>
