<svg width="198" height="91" viewBox="0 0 198 91" fill="none" xmlns="http://www.w3.org/2000/svg">
<g filter="url(#filter0_d_113_188)">
<rect x="20.8735" y="7.25977" width="156.253" height="50.3533" rx="3.33333" fill="#FFDD00"/>
<path d="M151.952 30.9616V29.2845C151.952 28.5189 152.899 28.1178 153.446 28.6647L156.582 31.8366C156.946 32.1647 156.946 32.7116 156.582 33.0397L153.446 36.2116C152.899 36.7585 151.952 36.3574 151.952 35.5918V33.8783H140.978C140.722 33.8783 140.54 33.696 140.54 33.4408V31.3991C140.54 31.1803 140.722 30.9616 140.978 30.9616H151.952Z" fill="black"/>
<path d="M48.419 37.5733C47.223 37.5733 46.211 37.3484 45.383 36.8986C44.5652 36.4488 43.9416 35.8099 43.5123 34.9819C43.0829 34.1539 42.8683 33.1726 42.8683 32.0379C42.8683 31.1793 42.9909 30.4075 43.2363 29.7226C43.4918 29.0377 43.8547 28.455 44.325 27.9746C44.8054 27.4839 45.3881 27.1108 46.073 26.8553C46.7578 26.5895 47.5347 26.4566 48.4036 26.4566C48.9761 26.4566 49.5485 26.5281 50.121 26.6713C50.7036 26.8041 51.2505 27.0341 51.7616 27.3613C51.9354 27.4737 52.0478 27.6117 52.099 27.7753C52.1603 27.9388 52.1705 28.1075 52.1296 28.2813C52.0887 28.4448 52.0121 28.5879 51.8996 28.7106C51.7872 28.8333 51.6441 28.9099 51.4703 28.9406C51.3067 28.9713 51.1227 28.9304 50.9183 28.8179C50.5298 28.593 50.1363 28.4295 49.7376 28.3273C49.339 28.225 48.8943 28.1739 48.4036 28.1739C47.6472 28.1739 47.0083 28.3273 46.487 28.6339C45.9656 28.9304 45.5721 29.3648 45.3063 29.9373C45.0507 30.5097 44.923 31.2099 44.923 32.0379C44.923 33.2953 45.2245 34.251 45.8276 34.9053C46.4307 35.5595 47.3252 35.8866 48.511 35.8866C48.9198 35.8866 49.3338 35.8457 49.753 35.7639C50.1721 35.6821 50.581 35.5697 50.9796 35.4266L50.5963 36.3006V33.0346H48.9096C48.6541 33.0346 48.4547 32.9681 48.3116 32.8353C48.1787 32.7024 48.1123 32.5235 48.1123 32.2986C48.1123 32.0635 48.1787 31.8846 48.3116 31.7619C48.4547 31.6393 48.6541 31.5779 48.9096 31.5779H51.4396C51.6952 31.5779 51.8894 31.6495 52.0223 31.7926C52.1654 31.9255 52.237 32.1197 52.237 32.3753V36.1013C52.237 36.3261 52.191 36.5153 52.099 36.6686C52.0172 36.8219 51.8792 36.9344 51.685 37.0059C51.2352 37.1695 50.719 37.3075 50.1363 37.4199C49.5536 37.5221 48.9812 37.5733 48.419 37.5733ZM58.0226 37.5733C57.1742 37.5733 56.4433 37.4148 55.83 37.0979C55.2166 36.781 54.7413 36.3313 54.404 35.7486C54.0769 35.1659 53.9133 34.4759 53.9133 33.6786C53.9133 32.9017 54.0718 32.2219 54.3886 31.6393C54.7158 31.0566 55.1604 30.6017 55.7226 30.2746C56.2951 29.9373 56.9442 29.7686 57.67 29.7686C58.2015 29.7686 58.6769 29.8555 59.096 30.0293C59.5253 30.203 59.8882 30.4535 60.1846 30.7806C60.4913 31.1077 60.7213 31.5064 60.8746 31.9766C61.0382 32.4366 61.12 32.9579 61.12 33.5406C61.12 33.7246 61.0535 33.8677 60.9206 33.9699C60.798 34.0619 60.6191 34.1079 60.384 34.1079H55.462V33.0039H59.7706L59.5253 33.2339C59.5253 32.7637 59.4538 32.3701 59.3106 32.0533C59.1778 31.7364 58.9784 31.4961 58.7126 31.3326C58.4571 31.1588 58.1351 31.0719 57.7466 31.0719C57.3173 31.0719 56.9493 31.1741 56.6426 31.3786C56.3462 31.5728 56.1162 31.8539 55.9526 32.2219C55.7993 32.5797 55.7226 33.009 55.7226 33.5099V33.6173C55.7226 34.4555 55.9169 35.0841 56.3053 35.5033C56.704 35.9121 57.2866 36.1166 58.0533 36.1166C58.3191 36.1166 58.6155 36.0859 58.9426 36.0246C59.28 35.953 59.5969 35.8355 59.8933 35.6719C60.108 35.5493 60.2971 35.4981 60.4606 35.5186C60.6242 35.5288 60.752 35.585 60.844 35.6873C60.9462 35.7895 61.0075 35.9173 61.028 36.0706C61.0484 36.2137 61.0178 36.3619 60.936 36.5153C60.8644 36.6686 60.7366 36.8015 60.5526 36.9139C60.1949 37.1388 59.7809 37.3075 59.3106 37.4199C58.8506 37.5221 58.4213 37.5733 58.0226 37.5733ZM66.0426 37.5733C65.3781 37.5733 64.821 37.4608 64.3712 37.2359C63.9317 37.011 63.6046 36.6839 63.3899 36.2546C63.1752 35.815 63.0679 35.2733 63.0679 34.6293V31.3633H62.2706C62.0252 31.3633 61.8361 31.3019 61.7032 31.1793C61.5704 31.0464 61.5039 30.8675 61.5039 30.6426C61.5039 30.4075 61.5704 30.2286 61.7032 30.1059C61.8361 29.9833 62.0252 29.9219 62.2706 29.9219H63.0679V28.5266C63.0679 28.2097 63.1497 27.9695 63.3132 27.8059C63.487 27.6424 63.7272 27.5606 64.0339 27.5606C64.3406 27.5606 64.5757 27.6424 64.7392 27.8059C64.9028 27.9695 64.9846 28.2097 64.9846 28.5266V29.9219H66.6099C66.8552 29.9219 67.0444 29.9833 67.1772 30.1059C67.3101 30.2286 67.3766 30.4075 67.3766 30.6426C67.3766 30.8675 67.3101 31.0464 67.1772 31.1793C67.0444 31.3019 66.8552 31.3633 66.6099 31.3633H64.9846V34.5219C64.9846 35.0126 65.0919 35.3806 65.3066 35.6259C65.5212 35.8713 65.8688 35.9939 66.3492 35.9939C66.523 35.9939 66.6764 35.9786 66.8092 35.9479C66.9421 35.9173 67.0597 35.8968 67.1619 35.8866C67.2846 35.8764 67.3868 35.9173 67.4686 36.0093C67.5504 36.091 67.5912 36.2648 67.5912 36.5306C67.5912 36.735 67.5555 36.919 67.4839 37.0826C67.4226 37.2359 67.305 37.3433 67.1312 37.4046C66.9984 37.4455 66.8246 37.4813 66.6099 37.5119C66.3952 37.5528 66.2061 37.5733 66.0426 37.5733ZM76.5654 37.5733C76.1157 37.5733 75.6659 37.5375 75.2161 37.4659C74.7663 37.4046 74.3421 37.3075 73.9434 37.1746C73.5448 37.0315 73.187 36.8577 72.8701 36.6533C72.6861 36.5306 72.5583 36.3824 72.4868 36.2086C72.4152 36.0348 72.3897 35.8661 72.4101 35.7026C72.4408 35.5288 72.5072 35.3806 72.6094 35.2579C72.7219 35.125 72.8599 35.0433 73.0234 35.0126C73.187 34.9819 73.3659 35.0279 73.5601 35.1506C74.0099 35.4164 74.4852 35.6106 74.9861 35.7333C75.487 35.8559 76.0134 35.9173 76.5654 35.9173C77.373 35.9173 77.9608 35.7844 78.3288 35.5186C78.6968 35.2426 78.8808 34.8899 78.8808 34.4606C78.8808 34.1028 78.7479 33.8217 78.4821 33.6173C78.2266 33.4128 77.7819 33.2441 77.1481 33.1113L75.4614 32.7586C74.4903 32.5541 73.7646 32.2117 73.2841 31.7313C72.8139 31.2406 72.5788 30.5966 72.5788 29.7993C72.5788 29.2984 72.681 28.8435 72.8854 28.4346C73.0899 28.0257 73.3761 27.673 73.7441 27.3766C74.1223 27.0801 74.567 26.8553 75.0781 26.7019C75.5994 26.5384 76.1719 26.4566 76.7954 26.4566C77.4088 26.4566 77.9914 26.5333 78.5434 26.6866C79.0954 26.8399 79.5912 27.0648 80.0308 27.3613C80.1943 27.4737 80.3017 27.6117 80.3528 27.7753C80.4141 27.9388 80.4294 28.1024 80.3988 28.2659C80.3681 28.4193 80.2966 28.5521 80.1841 28.6646C80.0717 28.777 79.9286 28.8435 79.7548 28.8639C79.5912 28.8844 79.4021 28.8333 79.1874 28.7106C78.8092 28.4959 78.4259 28.3426 78.0374 28.2506C77.649 28.1586 77.2299 28.1126 76.7801 28.1126C76.3099 28.1126 75.9061 28.179 75.5688 28.3119C75.2314 28.4448 74.9708 28.6339 74.7868 28.8793C74.613 29.1144 74.5261 29.3955 74.5261 29.7226C74.5261 30.0906 74.6488 30.387 74.8941 30.6119C75.1394 30.8266 75.5586 30.9953 76.1514 31.1179L77.8228 31.4706C78.8348 31.6853 79.5861 32.0226 80.0768 32.4826C80.5777 32.9426 80.8281 33.5559 80.8281 34.3226C80.8281 34.8133 80.7259 35.2579 80.5214 35.6566C80.3272 36.0553 80.041 36.3977 79.6628 36.6839C79.2948 36.9701 78.8501 37.1899 78.3288 37.3433C77.8074 37.4966 77.2197 37.5733 76.5654 37.5733ZM85.6884 37.5733C85.024 37.5733 84.4669 37.4608 84.0171 37.2359C83.5775 37.011 83.2504 36.6839 83.0358 36.2546C82.8211 35.815 82.7138 35.2733 82.7138 34.6293V31.3633H81.9164C81.6711 31.3633 81.482 31.3019 81.3491 31.1793C81.2162 31.0464 81.1498 30.8675 81.1498 30.6426C81.1498 30.4075 81.2162 30.2286 81.3491 30.1059C81.482 29.9833 81.6711 29.9219 81.9164 29.9219H82.7138V28.5266C82.7138 28.2097 82.7955 27.9695 82.9591 27.8059C83.1329 27.6424 83.3731 27.5606 83.6798 27.5606C83.9864 27.5606 84.2215 27.6424 84.3851 27.8059C84.5486 27.9695 84.6304 28.2097 84.6304 28.5266V29.9219H86.2558C86.5011 29.9219 86.6902 29.9833 86.8231 30.1059C86.956 30.2286 87.0224 30.4075 87.0224 30.6426C87.0224 30.8675 86.956 31.0464 86.8231 31.1793C86.6902 31.3019 86.5011 31.3633 86.2558 31.3633H84.6304V34.5219C84.6304 35.0126 84.7378 35.3806 84.9524 35.6259C85.1671 35.8713 85.5146 35.9939 85.9951 35.9939C86.1689 35.9939 86.3222 35.9786 86.4551 35.9479C86.588 35.9173 86.7055 35.8968 86.8078 35.8866C86.9304 35.8764 87.0326 35.9173 87.1144 36.0093C87.1962 36.091 87.2371 36.2648 87.2371 36.5306C87.2371 36.735 87.2013 36.919 87.1298 37.0826C87.0684 37.2359 86.9509 37.3433 86.7771 37.4046C86.6442 37.4455 86.4704 37.4813 86.2558 37.5119C86.0411 37.5528 85.852 37.5733 85.6884 37.5733ZM90.6072 37.5733C90.0654 37.5733 89.5798 37.471 89.1505 37.2666C88.7314 37.0519 88.3992 36.7657 88.1538 36.4079C87.9187 36.0501 87.8012 35.6464 87.8012 35.1966C87.8012 34.6446 87.9443 34.2101 88.2305 33.8933C88.5167 33.5661 88.9818 33.331 89.6258 33.1879C90.2698 33.0448 91.1336 32.9733 92.2172 32.9733H92.9838V34.0773H92.2325C91.5987 34.0773 91.0927 34.1079 90.7145 34.1693C90.3363 34.2306 90.0654 34.3379 89.9018 34.4913C89.7485 34.6344 89.6718 34.8388 89.6718 35.1046C89.6718 35.4419 89.7894 35.7179 90.0245 35.9326C90.2596 36.1473 90.5867 36.2546 91.0058 36.2546C91.3432 36.2546 91.6396 36.1779 91.8952 36.0246C92.161 35.861 92.3705 35.6413 92.5238 35.3653C92.6772 35.0893 92.7539 34.7724 92.7539 34.4146V32.6513C92.7539 32.1401 92.6414 31.7721 92.4165 31.5473C92.1916 31.3224 91.8134 31.2099 91.2818 31.2099C90.9854 31.2099 90.6634 31.2457 90.3158 31.3173C89.9785 31.3888 89.6207 31.5115 89.2425 31.6853C89.0483 31.7773 88.8745 31.8028 88.7212 31.7619C88.5781 31.721 88.4656 31.6393 88.3838 31.5166C88.3021 31.3837 88.2612 31.2406 88.2612 31.0873C88.2612 30.9339 88.3021 30.7857 88.3838 30.6426C88.4656 30.4893 88.6036 30.3768 88.7978 30.3053C89.2681 30.111 89.7178 29.973 90.1472 29.8913C90.5867 29.8095 90.9854 29.7686 91.3432 29.7686C92.0792 29.7686 92.6823 29.881 93.1525 30.1059C93.633 30.3308 93.9907 30.6733 94.2259 31.1333C94.461 31.583 94.5785 32.1657 94.5785 32.8813V36.5613C94.5785 36.8781 94.5019 37.1235 94.3485 37.2973C94.1952 37.4608 93.9754 37.5426 93.6892 37.5426C93.403 37.5426 93.1781 37.4608 93.0145 37.2973C92.8612 37.1235 92.7845 36.8781 92.7845 36.5613V35.8253H92.9072C92.8356 36.183 92.6925 36.4948 92.4779 36.7606C92.2734 37.0161 92.0127 37.2155 91.6959 37.3586C91.379 37.5017 91.0161 37.5733 90.6072 37.5733ZM97.5053 37.5426C97.1884 37.5426 96.943 37.4608 96.7693 37.2973C96.6057 37.1235 96.5239 36.8781 96.5239 36.5613V30.7653C96.5239 30.4484 96.6057 30.2081 96.7693 30.0446C96.9328 29.881 97.1628 29.7993 97.4593 29.7993C97.7557 29.7993 97.9857 29.881 98.1493 30.0446C98.3128 30.2081 98.3946 30.4484 98.3946 30.7653V31.7313H98.2413C98.3844 31.1179 98.6655 30.6528 99.0846 30.3359C99.5037 30.019 100.061 29.8299 100.756 29.7686C100.971 29.7481 101.139 29.8044 101.262 29.9373C101.395 30.0599 101.471 30.2541 101.492 30.5199C101.512 30.7755 101.451 30.985 101.308 31.1486C101.175 31.3019 100.971 31.3939 100.695 31.4246L100.357 31.4553C99.7337 31.5166 99.2635 31.7108 98.9466 32.0379C98.6297 32.3548 98.4713 32.8046 98.4713 33.3873V36.5613C98.4713 36.8781 98.3895 37.1235 98.2259 37.2973C98.0624 37.4608 97.8222 37.5426 97.5053 37.5426ZM106.397 37.5733C105.733 37.5733 105.176 37.4608 104.726 37.2359C104.287 37.011 103.959 36.6839 103.745 36.2546C103.53 35.815 103.423 35.2733 103.423 34.6293V31.3633H102.625C102.38 31.3633 102.191 31.3019 102.058 31.1793C101.925 31.0464 101.859 30.8675 101.859 30.6426C101.859 30.4075 101.925 30.2286 102.058 30.1059C102.191 29.9833 102.38 29.9219 102.625 29.9219H103.423V28.5266C103.423 28.2097 103.505 27.9695 103.668 27.8059C103.842 27.6424 104.082 27.5606 104.389 27.5606C104.695 27.5606 104.931 27.6424 105.094 27.8059C105.258 27.9695 105.339 28.2097 105.339 28.5266V29.9219H106.965C107.21 29.9219 107.399 29.9833 107.532 30.1059C107.665 30.2286 107.731 30.4075 107.731 30.6426C107.731 30.8675 107.665 31.0464 107.532 31.1793C107.399 31.3019 107.21 31.3633 106.965 31.3633H105.339V34.5219C105.339 35.0126 105.447 35.3806 105.661 35.6259C105.876 35.8713 106.224 35.9939 106.704 35.9939C106.878 35.9939 107.031 35.9786 107.164 35.9479C107.297 35.9173 107.415 35.8968 107.517 35.8866C107.639 35.8764 107.742 35.9173 107.823 36.0093C107.905 36.091 107.946 36.2648 107.946 36.5306C107.946 36.735 107.91 36.919 107.839 37.0826C107.777 37.2359 107.66 37.3433 107.486 37.4046C107.353 37.4455 107.179 37.4813 106.965 37.5119C106.75 37.5528 106.561 37.5733 106.397 37.5733ZM112.468 37.5733C111.62 37.5733 110.889 37.4148 110.275 37.0979C109.662 36.781 109.187 36.3313 108.849 35.7486C108.522 35.1659 108.359 34.4759 108.359 33.6786C108.359 32.9017 108.517 32.2219 108.834 31.6393C109.161 31.0566 109.606 30.6017 110.168 30.2746C110.74 29.9373 111.39 29.7686 112.115 29.7686C112.647 29.7686 113.122 29.8555 113.541 30.0293C113.971 30.203 114.334 30.4535 114.63 30.7806C114.937 31.1077 115.167 31.5064 115.32 31.9766C115.484 32.4366 115.565 32.9579 115.565 33.5406C115.565 33.7246 115.499 33.8677 115.366 33.9699C115.243 34.0619 115.064 34.1079 114.829 34.1079H109.907V33.0039H114.216L113.971 33.2339C113.971 32.7637 113.899 32.3701 113.756 32.0533C113.623 31.7364 113.424 31.4961 113.158 31.3326C112.902 31.1588 112.58 31.0719 112.192 31.0719C111.763 31.0719 111.395 31.1741 111.088 31.3786C110.792 31.5728 110.562 31.8539 110.398 32.2219C110.245 32.5797 110.168 33.009 110.168 33.5099V33.6173C110.168 34.4555 110.362 35.0841 110.751 35.5033C111.149 35.9121 111.732 36.1166 112.499 36.1166C112.764 36.1166 113.061 36.0859 113.388 36.0246C113.725 35.953 114.042 35.8355 114.339 35.6719C114.553 35.5493 114.742 35.4981 114.906 35.5186C115.07 35.5288 115.197 35.585 115.289 35.6873C115.392 35.7895 115.453 35.9173 115.473 36.0706C115.494 36.2137 115.463 36.3619 115.381 36.5153C115.31 36.6686 115.182 36.8015 114.998 36.9139C114.64 37.1388 114.226 37.3075 113.756 37.4199C113.296 37.5221 112.867 37.5733 112.468 37.5733ZM119.966 37.5733C119.312 37.5733 118.734 37.4148 118.233 37.0979C117.743 36.781 117.359 36.3313 117.083 35.7486C116.807 35.1557 116.669 34.4606 116.669 33.6633C116.669 32.8557 116.807 32.1657 117.083 31.5933C117.359 31.0106 117.743 30.5608 118.233 30.2439C118.734 29.927 119.312 29.7686 119.966 29.7686C120.589 29.7686 121.131 29.9219 121.591 30.2286C122.061 30.5353 122.378 30.939 122.542 31.4399H122.373V27.4533C122.373 27.1364 122.455 26.8961 122.619 26.7326C122.782 26.569 123.017 26.4873 123.324 26.4873C123.631 26.4873 123.866 26.569 124.029 26.7326C124.203 26.8961 124.29 27.1364 124.29 27.4533V36.5613C124.29 36.8781 124.208 37.1235 124.045 37.2973C123.881 37.4608 123.646 37.5426 123.339 37.5426C123.033 37.5426 122.797 37.4608 122.634 37.2973C122.47 37.1235 122.389 36.8781 122.389 36.5613V35.3653L122.557 35.8253C122.404 36.3568 122.092 36.781 121.622 37.0979C121.152 37.4148 120.6 37.5733 119.966 37.5733ZM120.503 36.1166C120.881 36.1166 121.213 36.0246 121.499 35.8406C121.785 35.6566 122.005 35.3857 122.159 35.0279C122.322 34.6599 122.404 34.205 122.404 33.6633C122.404 32.8455 122.23 32.2373 121.883 31.8386C121.535 31.4297 121.075 31.2253 120.503 31.2253C120.124 31.2253 119.792 31.3173 119.506 31.5013C119.22 31.675 118.995 31.9459 118.831 32.3139C118.678 32.6717 118.601 33.1215 118.601 33.6633C118.601 34.4708 118.775 35.0841 119.123 35.5033C119.47 35.9121 119.93 36.1166 120.503 36.1166Z" fill="black"/>
</g>
<defs>
<filter id="filter0_d_113_188" x="0.873535" y="0.5931" width="196.253" height="90.3535" filterUnits="userSpaceOnUse" color-interpolation-filters="sRGB">
<feFlood flood-opacity="0" result="BackgroundImageFix"/>
<feColorMatrix in="SourceAlpha" type="matrix" values="0 0 0 0 0 0 0 0 0 0 0 0 0 0 0 0 0 0 127 0" result="hardAlpha"/>
<feOffset dy="13.3333"/>
<feGaussianBlur stdDeviation="10"/>
<feComposite in2="hardAlpha" operator="out"/>
<feColorMatrix type="matrix" values="0 0 0 0 1 0 0 0 0 0.866667 0 0 0 0 0 0 0 0 0.28 0"/>
<feBlend mode="normal" in2="BackgroundImageFix" result="effect1_dropShadow_113_188"/>
<feBlend mode="normal" in="SourceGraphic" in2="effect1_dropShadow_113_188" result="shape"/>
</filter>
</defs>
</svg>
