<svg width="51" height="52" viewBox="0 0 51 52" fill="none" xmlns="http://www.w3.org/2000/svg">
<rect x="0.0400391" y="0.447266" width="50.448" height="50.448" rx="4.204" fill="#1C7E68"/>
<g clip-path="url(#clip0_113_251)">
<path d="M33.8785 17.2034C32.8191 16.144 31.6041 15.3284 30.2336 14.7566C28.8631 14.1849 27.4212 13.899 25.9077 13.899C25.6555 13.899 25.4411 13.9873 25.2645 14.1639C25.0879 14.3405 24.9996 14.5506 24.9996 14.7945C24.9996 15.0383 25.0879 15.2485 25.2645 15.4251C25.4411 15.6017 25.6555 15.6899 25.9077 15.6899C27.1689 15.6899 28.3797 15.9296 29.54 16.4088C30.7003 16.8881 31.7261 17.5733 32.6173 18.4646C33.5086 19.3558 34.1938 20.3816 34.6731 21.5419C35.1523 22.7022 35.3919 23.913 35.3919 25.1742C35.3919 25.4264 35.4802 25.6408 35.6568 25.8174C35.8334 25.9939 36.0436 26.0822 36.2874 26.0822C36.5312 26.0822 36.7414 25.9939 36.918 25.8174C37.0946 25.6408 37.1828 25.4264 37.1828 25.1742C37.1828 23.6607 36.897 22.2188 36.3252 20.8482C35.7535 19.4777 34.9379 18.2628 33.8785 17.2034ZM30.1958 25.1742C30.1958 25.4264 30.2841 25.6408 30.4606 25.8174C30.6372 25.9939 30.8474 26.0822 31.0912 26.0822C31.3351 26.0822 31.5453 25.9939 31.7218 25.8174C31.8984 25.6408 31.9867 25.4264 31.9867 25.1742C31.9867 24.0811 31.7134 23.068 31.1669 22.1347C30.6204 21.2014 29.8805 20.4615 28.9472 19.915C28.0139 19.3684 27.0008 19.0952 25.9077 19.0952C25.6555 19.0952 25.4411 19.1835 25.2645 19.36C25.0879 19.5366 24.9996 19.7468 24.9996 19.9906C24.9996 20.2345 25.0879 20.4447 25.2645 20.6212C25.4411 20.7978 25.6555 20.8861 25.9077 20.8861C26.6813 20.8861 27.3959 21.0795 28.0518 21.4662C28.7076 21.853 29.2289 22.3743 29.6156 23.0301C30.0024 23.6859 30.1958 24.4006 30.1958 25.1742ZM28.2283 29.7397C27.6398 29.7061 27.1101 29.8742 26.6392 30.2442C26.3702 30.4628 26.1011 30.7739 25.832 31.1775C25.6975 31.3793 25.6513 31.6021 25.6933 31.8459C25.7353 32.0898 25.8615 32.2789 26.0717 32.4135C26.2819 32.548 26.5089 32.5942 26.7527 32.5522C26.9966 32.5102 27.1857 32.3882 27.3203 32.1864C27.5052 31.9006 27.6524 31.7156 27.7617 31.6315C27.871 31.5474 27.9929 31.5138 28.1274 31.5306C28.3797 31.5474 28.8253 31.766 29.4643 32.1864C30.0697 32.5732 30.6498 33.002 31.2048 33.4729C31.7933 33.9773 32.138 34.3389 32.2389 34.5575C32.323 34.7257 32.323 34.9359 32.2389 35.1881C31.9026 36.1802 31.3897 36.8277 30.7003 37.1303C30.0445 37.4499 29.2793 37.4246 28.4049 37.0547C25.1762 35.7262 22.4184 33.9269 20.1314 31.6567C17.8613 29.3698 16.0619 26.6119 14.7335 23.3833C14.3635 22.5088 14.3383 21.7437 14.6578 21.0879C14.9605 20.3816 15.6079 19.8687 16.6001 19.5492C16.8523 19.4651 17.0625 19.4567 17.2307 19.524C17.4493 19.6249 17.8108 19.9696 18.3153 20.5582C18.7861 21.1299 19.2149 21.7185 19.6017 22.3239C20.0221 22.9629 20.2407 23.4085 20.2575 23.6607C20.2744 23.7953 20.2407 23.9172 20.1566 24.0265C20.0726 24.1358 19.8876 24.2829 19.6017 24.4679C19.3999 24.6024 19.278 24.7916 19.236 25.0354C19.1939 25.2793 19.2402 25.5063 19.3747 25.7165C19.5092 25.9267 19.6984 26.0528 19.9422 26.0948C20.1861 26.1369 20.4089 26.0906 20.6107 25.9561C21.0143 25.6871 21.3254 25.418 21.544 25.1489C21.9139 24.6781 22.0821 24.1484 22.0484 23.5598C22.0316 23.1058 21.7542 22.4332 21.216 21.5419C20.7284 20.7179 20.165 19.9444 19.526 19.2213C18.8534 18.4646 18.2985 18.0105 17.8613 17.8592C17.2727 17.6238 16.6589 17.6238 16.0199 17.8592C15.2968 18.0946 14.683 18.4225 14.1785 18.8429C13.6741 19.2633 13.2915 19.7552 13.0309 20.3185C12.7702 20.8819 12.6441 21.4788 12.6525 22.1094C12.6609 22.74 12.7996 23.3833 13.0687 24.0391C14.4812 27.4864 16.4151 30.446 18.8702 32.9179V32.9432C21.3422 35.3815 24.3018 37.3069 27.7491 38.7195C28.4049 38.9885 29.0691 39.123 29.7418 39.123C30.364 39.123 30.9357 38.9969 31.457 38.7447C32.0287 38.4924 32.5248 38.1141 32.9452 37.6096C33.3656 37.1051 33.6935 36.4913 33.929 35.7683C34.1644 35.1292 34.1644 34.5155 33.929 33.9269C33.7776 33.4897 33.3236 32.9348 32.5669 32.2621C31.8438 31.6231 31.0702 31.0598 30.2462 30.5721C29.355 30.034 28.6824 29.7565 28.2283 29.7397Z" fill="white"/>
</g>
<defs>
<clipPath id="clip0_113_251">
<rect width="25.224" height="50.448" fill="white" transform="matrix(1 0 0 -1 12.6519 51.7363)"/>
</clipPath>
</defs>
</svg>
