<svg width="208" height="110" viewBox="0 0 208 110" fill="none" xmlns="http://www.w3.org/2000/svg">
<path d="M36.96 37.0747C36.5689 39.4604 35.6498 41.6507 34.2027 43.6453C32.7556 45.6009 30.7804 47.1849 28.2773 48.3973C25.8133 49.6098 22.8996 50.216 19.536 50.216H13.3173L10.6773 65H0.645333L7.92 23.816H24.1707C28.4729 23.816 31.7191 24.7742 33.9093 26.6907C36.0996 28.568 37.1947 31.1298 37.1947 34.376C37.1947 35.3538 37.1164 36.2533 36.96 37.0747ZM20.1227 42.3547C23.8773 42.3547 26.0871 40.5947 26.752 37.0747C26.8302 36.4489 26.8693 35.9991 26.8693 35.7253C26.8693 34.4738 26.4587 33.5156 25.6373 32.8507C24.8551 32.1467 23.6427 31.7947 22 31.7947H16.544L14.7253 42.3547H20.1227ZM48.6947 28.8613C47.1303 28.8613 45.8787 28.4507 44.94 27.6293C44.0405 26.7689 43.5907 25.6933 43.5907 24.4027C43.5907 22.6427 44.2751 21.1369 45.644 19.8853C47.0129 18.6338 48.6751 18.008 50.6307 18.008C52.1951 18.008 53.4271 18.4382 54.3267 19.2987C55.2263 20.12 55.676 21.1956 55.676 22.5253C55.676 24.2462 54.9916 25.7324 53.6227 26.984C52.2538 28.2356 50.6111 28.8613 48.6947 28.8613ZM53.036 32.264L47.2867 65H37.2547L43.004 32.264H53.036ZM72.2741 21.5867L64.5888 65H54.5568L62.2421 21.5867H72.2741ZM72.7975 48.5733C73.3842 45.2098 74.538 42.2569 76.2589 39.7147C77.9798 37.1724 80.0526 35.2169 82.4775 33.848C84.9024 32.4791 87.4642 31.7947 90.1629 31.7947C92.4704 31.7947 94.4064 32.264 95.9709 33.2027C97.5353 34.1413 98.6695 35.3733 99.3735 36.8987L100.195 32.264H110.227L104.419 65H94.3869L95.2669 60.3653C94.0153 61.8907 92.4313 63.1227 90.5149 64.0613C88.5984 65 86.4864 65.4693 84.1789 65.4693C81.8713 65.4693 79.818 64.9413 78.0189 63.8853C76.2589 62.8293 74.89 61.3431 73.9122 59.4267C72.9344 57.4711 72.4455 55.1831 72.4455 52.5627C72.4455 51.3111 72.5629 49.9813 72.7975 48.5733ZM97.3202 48.632C97.4375 47.928 97.4962 47.2827 97.4962 46.696C97.4962 44.7796 96.9291 43.2738 95.7949 42.1787C94.6998 41.0836 93.2918 40.536 91.5709 40.536C89.5762 40.536 87.7575 41.2596 86.1149 42.7067C84.4722 44.1147 83.4358 46.0702 83.0055 48.5733C82.8882 49.2773 82.8295 49.9227 82.8295 50.5093C82.8295 52.4258 83.3771 53.9511 84.4722 55.0853C85.6064 56.1804 87.0144 56.728 88.6962 56.728C90.6909 56.728 92.5095 56.0044 94.1522 54.5573C95.7949 53.1102 96.8509 51.1351 97.3202 48.632ZM137.431 31.912C140.717 31.912 143.298 32.8311 145.175 34.6693C147.053 36.5076 147.991 39.0693 147.991 42.3547C147.991 43.4498 147.874 44.6231 147.639 45.8747L144.237 65H134.263L137.431 47.224C137.549 46.5591 137.607 45.9724 137.607 45.464C137.607 43.8213 137.138 42.5502 136.199 41.6507C135.3 40.7511 134.029 40.3013 132.386 40.3013C130.43 40.3013 128.788 40.9076 127.458 42.12C126.128 43.3324 125.268 45.0338 124.877 47.224V46.9307L121.709 65H111.677L117.426 32.264H127.458L126.695 36.664C127.986 35.2169 129.55 34.0631 131.389 33.2027C133.266 32.3422 135.28 31.912 137.431 31.912ZM162.648 28.8613C161.083 28.8613 159.832 28.4507 158.893 27.6293C157.994 26.7689 157.544 25.6933 157.544 24.4027C157.544 22.6427 158.228 21.1369 159.597 19.8853C160.966 18.6338 162.628 18.008 164.584 18.008C166.148 18.008 167.38 18.4382 168.28 19.2987C169.179 20.12 169.629 21.1956 169.629 22.5253C169.629 24.2462 168.945 25.7324 167.576 26.984C166.207 28.2356 164.564 28.8613 162.648 28.8613ZM166.989 32.264L161.24 65H151.208L156.957 32.264H166.989ZM169.449 48.5733C170.035 45.2098 171.189 42.2569 172.91 39.7147C174.631 37.1724 176.704 35.2169 179.129 33.848C181.553 32.4791 184.115 31.7947 186.814 31.7947C189.121 31.7947 191.057 32.264 192.622 33.2027C194.186 34.1413 195.321 35.3733 196.025 36.8987L196.846 32.264H206.878L201.07 65H191.038L191.918 60.3653C190.666 61.8907 189.082 63.1227 187.166 64.0613C185.249 65 183.137 65.4693 180.83 65.4693C178.522 65.4693 176.469 64.9413 174.67 63.8853C172.91 62.8293 171.541 61.3431 170.563 59.4267C169.585 57.4711 169.097 55.1831 169.097 52.5627C169.097 51.3111 169.214 49.9813 169.449 48.5733ZM193.971 48.632C194.089 47.928 194.147 47.2827 194.147 46.696C194.147 44.7796 193.58 43.2738 192.446 42.1787C191.351 41.0836 189.943 40.536 188.222 40.536C186.227 40.536 184.409 41.2596 182.766 42.7067C181.123 44.1147 180.087 46.0702 179.657 48.5733C179.539 49.2773 179.481 49.9227 179.481 50.5093C179.481 52.4258 180.028 53.9511 181.123 55.0853C182.257 56.1804 183.665 56.728 185.347 56.728C187.342 56.728 189.161 56.0044 190.803 54.5573C192.446 53.1102 193.502 51.1351 193.971 48.632Z" fill="#FFDD00"/>
<path d="M17.4533 77.6133L16.984 80.224H11.5573L8.41867 98H5.07467L8.21333 80.224H2.75733L3.22667 77.6133H17.4533ZM22.9226 84.6827C23.5875 83.7049 24.3697 82.9422 25.2693 82.3947C26.1884 81.8471 27.2053 81.5733 28.32 81.5733L27.704 85.0347H26.8533C25.5626 85.0347 24.5262 85.3573 23.744 86.0027C22.9617 86.648 22.4142 87.7627 22.1013 89.3467L20.576 98H17.232L20.0773 81.8373H23.4213L22.9226 84.6827ZM28.8124 89.8453C29.1058 88.2222 29.6924 86.7849 30.5724 85.5333C31.472 84.2818 32.5671 83.3138 33.8578 82.6293C35.1484 81.9253 36.4978 81.5733 37.9058 81.5733C39.1769 81.5733 40.2427 81.8276 41.1031 82.336C41.9635 82.8249 42.6089 83.4409 43.0391 84.184L43.4498 81.8373H46.8231L43.9778 98H40.6044L41.0444 95.5947C40.3404 96.3573 39.4507 96.9929 38.3751 97.5013C37.3191 98.0098 36.1653 98.264 34.9138 98.264C33.7013 98.264 32.616 97.9902 31.6578 97.4427C30.7191 96.8951 29.976 96.1227 29.4284 95.1253C28.9004 94.1084 28.6364 92.9449 28.6364 91.6347C28.6364 91.048 28.6951 90.4516 28.8124 89.8453ZM42.0418 89.904C42.12 89.5324 42.1591 89.1316 42.1591 88.7013C42.1591 87.3911 41.768 86.3644 40.9858 85.6213C40.2231 84.8587 39.2649 84.4773 38.1111 84.4773C37.2507 84.4773 36.4098 84.6924 35.5884 85.1227C34.7671 85.5333 34.0533 86.1493 33.4471 86.9707C32.8409 87.7724 32.44 88.7307 32.2444 89.8453C32.1662 90.2169 32.1271 90.6178 32.1271 91.048C32.1271 92.3778 32.5084 93.4338 33.2711 94.216C34.0533 94.9787 35.0213 95.36 36.1751 95.36C37.0355 95.36 37.8764 95.1449 38.6978 94.7147C39.5191 94.2844 40.2329 93.6587 40.8391 92.8373C41.4453 91.9964 41.8462 91.0187 42.0418 89.904ZM59.4286 81.5733C61.13 81.5733 62.4793 82.0329 63.4766 82.952C64.4935 83.8516 65.002 85.152 65.002 86.8533C65.002 87.2836 64.9531 87.8213 64.8553 88.4667L63.154 98H59.8393L61.4526 88.9653C61.5309 88.4178 61.57 88.0267 61.57 87.792C61.57 86.7164 61.2669 85.8951 60.6606 85.328C60.074 84.7609 59.2526 84.4773 58.1966 84.4773C56.9255 84.4773 55.85 84.8684 54.97 85.6507C54.1095 86.4133 53.562 87.5182 53.3273 88.9653V88.8773L51.714 98H48.37L51.2153 81.8373H54.5593L54.2366 83.7147C54.9015 83.0498 55.6838 82.5316 56.5833 82.16C57.5024 81.7689 58.4509 81.5733 59.4286 81.5733ZM73.3741 98.264C72.2594 98.264 71.2426 98.0782 70.3234 97.7067C69.4043 97.3156 68.6808 96.7778 68.1528 96.0933C67.6248 95.3893 67.3608 94.5876 67.3608 93.688C67.3608 93.5316 67.3803 93.3164 67.4194 93.0427H70.6754C70.5972 93.7858 70.8221 94.4018 71.3501 94.8907C71.8781 95.3796 72.6212 95.624 73.5794 95.624C74.5181 95.624 75.2906 95.4578 75.8968 95.1253C76.503 94.7929 76.8061 94.304 76.8061 93.6587C76.8061 93.1111 76.5519 92.6711 76.0434 92.3387C75.5546 92.0062 74.7626 91.6347 73.6674 91.224C72.631 90.8133 71.7901 90.432 71.1448 90.08C70.4994 89.728 69.9421 89.2489 69.4728 88.6427C69.0034 88.0169 68.7688 87.2444 68.7688 86.3253C68.7688 85.3867 69.0328 84.5653 69.5608 83.8613C70.1083 83.1378 70.8612 82.5804 71.8194 82.1893C72.7972 81.7787 73.9119 81.5733 75.1634 81.5733C76.2977 81.5733 77.3048 81.7689 78.1848 82.16C79.0843 82.5316 79.7786 83.0693 80.2674 83.7733C80.7759 84.4578 81.0301 85.2498 81.0301 86.1493C81.0301 86.4231 81.0203 86.6284 81.0008 86.7653H77.8328C77.911 86.0027 77.6861 85.3867 77.1581 84.9173C76.6497 84.448 75.9163 84.2133 74.9581 84.2133C74.1172 84.2133 73.4328 84.3893 72.9048 84.7413C72.3963 85.0933 72.1421 85.5724 72.1421 86.1787C72.1421 86.7849 72.4061 87.2738 72.9341 87.6453C73.4621 87.9973 74.2737 88.3884 75.3688 88.8187C76.3661 89.2098 77.1777 89.5813 77.8034 89.9333C78.4292 90.2853 78.967 90.7547 79.4168 91.3413C79.8666 91.928 80.0914 92.6613 80.0914 93.5413C80.0914 94.4996 79.7981 95.3404 79.2114 96.064C78.6443 96.768 77.8523 97.3156 76.8354 97.7067C75.8186 98.0782 74.6648 98.264 73.3741 98.264ZM116.963 77.6133L113.355 98H110.011L112.475 84.0373L103.792 98H101.475L97.691 84.0373L95.227 98H91.883L95.491 77.6133H99.099L103.44 93.6L113.384 77.6133H116.963ZM124.82 98.264C123.451 98.264 122.248 97.9804 121.212 97.4133C120.175 96.8462 119.364 96.0444 118.777 95.008C118.21 93.9716 117.926 92.7884 117.926 91.4587C117.926 89.64 118.347 87.9778 119.188 86.472C120.048 84.9662 121.221 83.7733 122.708 82.8933C124.213 82.0133 125.885 81.5733 127.724 81.5733C129.092 81.5733 130.305 81.8667 131.361 82.4533C132.417 83.0204 133.238 83.8222 133.825 84.8587C134.431 85.8756 134.734 87.0587 134.734 88.408C134.734 90.2267 134.294 91.8889 133.414 93.3947C132.534 94.9004 131.341 96.0933 129.836 96.9733C128.33 97.8338 126.658 98.264 124.82 98.264ZM125.23 95.448C126.345 95.448 127.362 95.1351 128.281 94.5093C129.22 93.864 129.953 93.0231 130.481 91.9867C131.009 90.9307 131.273 89.8062 131.273 88.6133C131.273 87.264 130.892 86.2276 130.129 85.504C129.366 84.7609 128.408 84.3893 127.254 84.3893C126.12 84.3893 125.103 84.712 124.204 85.3573C123.324 85.9831 122.629 86.8338 122.121 87.9093C121.632 88.9653 121.388 90.0996 121.388 91.312C121.388 92.6222 121.74 93.6391 122.444 94.3627C123.167 95.0862 124.096 95.448 125.23 95.448ZM143.232 95.008L150.125 81.8373H153.733L144.728 98H140.68L137.395 81.8373H140.973L143.232 95.008ZM163.213 81.5733C165.227 81.5733 166.831 82.1404 168.024 83.2747C169.236 84.4089 169.842 85.9342 169.842 87.8507C169.842 88.3004 169.793 88.8382 169.696 89.464C169.617 89.8942 169.481 90.4222 169.285 91.048H156.936C156.916 91.1849 156.906 91.3902 156.906 91.664C156.906 92.8178 157.258 93.7369 157.962 94.4213C158.686 95.1058 159.625 95.448 160.778 95.448C162.597 95.448 163.995 94.6951 164.973 93.1893H168.581C167.838 94.6756 166.743 95.8978 165.296 96.856C163.849 97.7947 162.177 98.264 160.28 98.264C158.93 98.264 157.747 98 156.73 97.472C155.713 96.944 154.921 96.1911 154.354 95.2133C153.787 94.216 153.504 93.0524 153.504 91.7227C153.504 91.1556 153.562 90.5493 153.68 89.904C153.973 88.2418 154.569 86.7849 155.469 85.5333C156.369 84.2622 157.483 83.2844 158.813 82.6C160.162 81.9156 161.629 81.5733 163.213 81.5733ZM166.352 88.6427C166.391 88.2907 166.41 88.0364 166.41 87.88C166.41 86.8044 166.049 85.9538 165.325 85.328C164.621 84.7022 163.702 84.3893 162.568 84.3893C161.375 84.3893 160.299 84.7707 159.341 85.5333C158.383 86.296 157.728 87.3324 157.376 88.6427H166.352ZM177.152 84.6827C177.817 83.7049 178.599 82.9422 179.498 82.3947C180.418 81.8471 181.434 81.5733 182.549 81.5733L181.933 85.0347H181.082C179.792 85.0347 178.755 85.3573 177.973 86.0027C177.191 86.648 176.643 87.7627 176.33 89.3467L174.805 98H171.461L174.306 81.8373H177.65L177.152 84.6827ZM188.674 98.264C187.559 98.264 186.542 98.0782 185.623 97.7067C184.704 97.3156 183.98 96.7778 183.452 96.0933C182.924 95.3893 182.66 94.5876 182.66 93.688C182.66 93.5316 182.68 93.3164 182.719 93.0427H185.975C185.897 93.7858 186.122 94.4018 186.65 94.8907C187.178 95.3796 187.921 95.624 188.879 95.624C189.818 95.624 190.59 95.4578 191.196 95.1253C191.802 94.7929 192.106 94.304 192.106 93.6587C192.106 93.1111 191.851 92.6711 191.343 92.3387C190.854 92.0062 190.062 91.6347 188.967 91.224C187.93 90.8133 187.09 90.432 186.444 90.08C185.799 89.728 185.242 89.2489 184.772 88.6427C184.303 88.0169 184.068 87.2444 184.068 86.3253C184.068 85.3867 184.332 84.5653 184.86 83.8613C185.408 83.1378 186.161 82.5804 187.119 82.1893C188.097 81.7787 189.211 81.5733 190.463 81.5733C191.597 81.5733 192.604 81.7689 193.484 82.16C194.384 82.5316 195.078 83.0693 195.567 83.7733C196.075 84.4578 196.33 85.2498 196.33 86.1493C196.33 86.4231 196.32 86.6284 196.3 86.7653H193.132C193.21 86.0027 192.986 85.3867 192.458 84.9173C191.949 84.448 191.216 84.2133 190.258 84.2133C189.417 84.2133 188.732 84.3893 188.204 84.7413C187.696 85.0933 187.442 85.5724 187.442 86.1787C187.442 86.7849 187.706 87.2738 188.234 87.6453C188.762 87.9973 189.573 88.3884 190.668 88.8187C191.666 89.2098 192.477 89.5813 193.103 89.9333C193.729 90.2853 194.266 90.7547 194.716 91.3413C195.166 91.928 195.391 92.6613 195.391 93.5413C195.391 94.4996 195.098 95.3404 194.511 96.064C193.944 96.768 193.152 97.3156 192.135 97.7067C191.118 98.0782 189.964 98.264 188.674 98.264Z" fill="#1C7E68"/>
</svg>
